{"accessors" : [{"bufferView" : 0, "byteOffset" : 0, "componentType" : 5123, "count" : 51768, "type" : "SCALAR", "max" : [24891], "min" : [0]}, {"bufferView" : 1, "byteOffset" : 0, "componentType" : 5126, "count" : 24892, "type" : "VEC3", "max" : [12.693976402282715, 3.174999952316284, 18.4075870513916], "min" : [-12.693976402282715, -3.174999952316284, -18.4075870513916], "name" : "POSITION"}, {"bufferView" : 1, "byteOffset" : 12, "componentType" : 5126, "count" : 24892, "type" : "VEC3", "max" : [0.9999517202377319, 1.0000044107437134, 1.0000044107437134], "min" : [-0.9999517202377319, -1.0000044107437134, -1.0000044107437134], "name" : "NORMAL"}], "asset" : {"generator" : "Aspose.3D 24.6.0", "version" : "2.0"}, "buffers" : [{"uri" : "data:application/octet-stream;base64,", "byteLength" : 700952}], "bufferViews" : [{"buffer" : 0, "byteOffset" : 0, "byteLength" : 103536, "target" : 34963}, {"buffer" : 0, "byteOffset" : 103540, "byteLength" : 597408, "byteStride" : 24, "target" : 34962}], "meshes" : [{"primitives" : [{"attributes" : {"POSITION" : 1, "NORMAL" : 2}, "indices" : 0, "mode" : 4}], "name" : ""}], "nodes" : [{"mesh" : 0, "name" : ""}], "scene" : 0, "scenes" : [{"nodes" : [0]}]}